<mxfile host="Electron" agent="Mozilla/5.0 (Windows NT 10.0; Win64; x64) AppleWebKit/537.36 (KHTML, like Gecko) draw.io/24.7.17 Chrome/128.0.6613.36 Electron/32.0.1 Safari/537.36" version="24.7.17">
  <diagram name="Page-1" id="XZhp91xPWpyURcWnDaWW">
    <mxGraphModel dx="583" dy="349" grid="1" gridSize="10" guides="1" tooltips="1" connect="1" arrows="1" fold="1" page="1" pageScale="1" pageWidth="827" pageHeight="1169" math="1" shadow="0">
      <root>
        <mxCell id="0" />
        <mxCell id="1" parent="0" />
        <mxCell id="eSohDNSTdxoi8HiKPgiF-134" value="" style="rounded=1;whiteSpace=wrap;html=1;fillColor=#EBFFFE;" vertex="1" parent="1">
          <mxGeometry x="510" y="555" width="50" height="160" as="geometry" />
        </mxCell>
        <mxCell id="eSohDNSTdxoi8HiKPgiF-133" value="" style="rounded=1;whiteSpace=wrap;html=1;fillColor=#FFE3E5;" vertex="1" parent="1">
          <mxGeometry x="110" y="520" width="50" height="220" as="geometry" />
        </mxCell>
        <mxCell id="eSohDNSTdxoi8HiKPgiF-130" value="" style="rounded=1;whiteSpace=wrap;html=1;fillColor=#DED6FF;" vertex="1" parent="1">
          <mxGeometry x="399" y="500" width="50" height="270" as="geometry" />
        </mxCell>
        <mxCell id="eSohDNSTdxoi8HiKPgiF-129" value="" style="rounded=1;whiteSpace=wrap;html=1;fillColor=#CCFFDB;" vertex="1" parent="1">
          <mxGeometry x="305" y="500" width="50" height="270" as="geometry" />
        </mxCell>
        <mxCell id="eSohDNSTdxoi8HiKPgiF-128" value="" style="rounded=1;whiteSpace=wrap;html=1;fillColor=#FFDCC2;" vertex="1" parent="1">
          <mxGeometry x="209.5" y="500" width="50" height="270" as="geometry" />
        </mxCell>
        <mxCell id="eSohDNSTdxoi8HiKPgiF-25" style="edgeStyle=orthogonalEdgeStyle;rounded=0;orthogonalLoop=1;jettySize=auto;html=1;exitX=1;exitY=0.5;exitDx=0;exitDy=0;" edge="1" parent="1" source="eSohDNSTdxoi8HiKPgiF-2" target="eSohDNSTdxoi8HiKPgiF-24">
          <mxGeometry relative="1" as="geometry" />
        </mxCell>
        <mxCell id="eSohDNSTdxoi8HiKPgiF-2" value="$$\sum$$" style="ellipse;whiteSpace=wrap;html=1;aspect=fixed;strokeWidth=2;" vertex="1" parent="1">
          <mxGeometry x="389" y="290" width="50" height="50" as="geometry" />
        </mxCell>
        <mxCell id="eSohDNSTdxoi8HiKPgiF-4" value="$$W_{k1}$$" style="rounded=0;whiteSpace=wrap;html=1;strokeWidth=2;" vertex="1" parent="1">
          <mxGeometry x="230" y="220" width="50" height="50" as="geometry" />
        </mxCell>
        <mxCell id="eSohDNSTdxoi8HiKPgiF-5" value="$$W_{k2}$$" style="rounded=0;whiteSpace=wrap;html=1;strokeWidth=2;" vertex="1" parent="1">
          <mxGeometry x="230" y="290" width="50" height="50" as="geometry" />
        </mxCell>
        <mxCell id="eSohDNSTdxoi8HiKPgiF-6" value="$$W_{k3}$$" style="rounded=0;whiteSpace=wrap;html=1;strokeWidth=2;" vertex="1" parent="1">
          <mxGeometry x="230" y="360" width="50" height="50" as="geometry" />
        </mxCell>
        <mxCell id="eSohDNSTdxoi8HiKPgiF-11" value="" style="endArrow=classic;html=1;rounded=0;exitX=1;exitY=0.5;exitDx=0;exitDy=0;entryX=0;entryY=0;entryDx=0;entryDy=0;" edge="1" parent="1" source="eSohDNSTdxoi8HiKPgiF-4" target="eSohDNSTdxoi8HiKPgiF-2">
          <mxGeometry width="50" height="50" relative="1" as="geometry">
            <mxPoint x="340" y="280" as="sourcePoint" />
            <mxPoint x="390" y="230" as="targetPoint" />
          </mxGeometry>
        </mxCell>
        <mxCell id="eSohDNSTdxoi8HiKPgiF-12" value="" style="endArrow=classic;html=1;rounded=0;exitX=1;exitY=0.5;exitDx=0;exitDy=0;entryX=0;entryY=0.5;entryDx=0;entryDy=0;" edge="1" parent="1" source="eSohDNSTdxoi8HiKPgiF-5" target="eSohDNSTdxoi8HiKPgiF-2">
          <mxGeometry width="50" height="50" relative="1" as="geometry">
            <mxPoint x="290" y="255" as="sourcePoint" />
            <mxPoint x="406" y="307" as="targetPoint" />
          </mxGeometry>
        </mxCell>
        <mxCell id="eSohDNSTdxoi8HiKPgiF-13" value="" style="endArrow=classic;html=1;rounded=0;exitX=1;exitY=0.5;exitDx=0;exitDy=0;entryX=0;entryY=1;entryDx=0;entryDy=0;" edge="1" parent="1" source="eSohDNSTdxoi8HiKPgiF-6" target="eSohDNSTdxoi8HiKPgiF-2">
          <mxGeometry width="50" height="50" relative="1" as="geometry">
            <mxPoint x="290" y="325" as="sourcePoint" />
            <mxPoint x="399" y="325" as="targetPoint" />
          </mxGeometry>
        </mxCell>
        <mxCell id="eSohDNSTdxoi8HiKPgiF-14" value="" style="endArrow=classic;html=1;rounded=0;entryX=0;entryY=0.5;entryDx=0;entryDy=0;" edge="1" parent="1" target="eSohDNSTdxoi8HiKPgiF-4">
          <mxGeometry width="50" height="50" relative="1" as="geometry">
            <mxPoint x="170" y="245" as="sourcePoint" />
            <mxPoint x="206" y="240" as="targetPoint" />
          </mxGeometry>
        </mxCell>
        <mxCell id="eSohDNSTdxoi8HiKPgiF-15" value="" style="endArrow=classic;html=1;rounded=0;entryX=0;entryY=0.5;entryDx=0;entryDy=0;" edge="1" parent="1" target="eSohDNSTdxoi8HiKPgiF-5">
          <mxGeometry width="50" height="50" relative="1" as="geometry">
            <mxPoint x="170" y="315" as="sourcePoint" />
            <mxPoint x="240" y="255" as="targetPoint" />
          </mxGeometry>
        </mxCell>
        <mxCell id="eSohDNSTdxoi8HiKPgiF-16" value="" style="endArrow=classic;html=1;rounded=0;entryX=0;entryY=0.5;entryDx=0;entryDy=0;" edge="1" parent="1" target="eSohDNSTdxoi8HiKPgiF-6">
          <mxGeometry width="50" height="50" relative="1" as="geometry">
            <mxPoint x="170" y="385" as="sourcePoint" />
            <mxPoint x="240" y="325" as="targetPoint" />
          </mxGeometry>
        </mxCell>
        <mxCell id="eSohDNSTdxoi8HiKPgiF-17" value="$$x_1$$" style="text;html=1;align=center;verticalAlign=middle;whiteSpace=wrap;rounded=0;fontSize=16;" vertex="1" parent="1">
          <mxGeometry x="140" y="232" width="20" height="20" as="geometry" />
        </mxCell>
        <mxCell id="eSohDNSTdxoi8HiKPgiF-18" value="$$x_2$$" style="text;html=1;align=center;verticalAlign=middle;whiteSpace=wrap;rounded=0;fontSize=16;" vertex="1" parent="1">
          <mxGeometry x="140" y="300" width="20" height="20" as="geometry" />
        </mxCell>
        <mxCell id="eSohDNSTdxoi8HiKPgiF-20" value="$$x_3$$" style="text;html=1;align=center;verticalAlign=middle;whiteSpace=wrap;rounded=0;fontSize=16;" vertex="1" parent="1">
          <mxGeometry x="140" y="370" width="20" height="20" as="geometry" />
        </mxCell>
        <mxCell id="eSohDNSTdxoi8HiKPgiF-22" style="edgeStyle=orthogonalEdgeStyle;rounded=0;orthogonalLoop=1;jettySize=auto;html=1;exitX=0.5;exitY=1;exitDx=0;exitDy=0;entryX=0.5;entryY=0;entryDx=0;entryDy=0;" edge="1" parent="1" source="eSohDNSTdxoi8HiKPgiF-21" target="eSohDNSTdxoi8HiKPgiF-2">
          <mxGeometry relative="1" as="geometry" />
        </mxCell>
        <mxCell id="eSohDNSTdxoi8HiKPgiF-21" value="" style="ellipse;whiteSpace=wrap;html=1;aspect=fixed;strokeWidth=2;" vertex="1" parent="1">
          <mxGeometry x="406" y="188" width="16" height="16" as="geometry" />
        </mxCell>
        <mxCell id="eSohDNSTdxoi8HiKPgiF-23" value="$$B_k$$" style="text;html=1;align=center;verticalAlign=middle;whiteSpace=wrap;rounded=0;fontSize=14;" vertex="1" parent="1">
          <mxGeometry x="380" y="180" width="20" height="20" as="geometry" />
        </mxCell>
        <mxCell id="eSohDNSTdxoi8HiKPgiF-26" style="edgeStyle=orthogonalEdgeStyle;rounded=0;orthogonalLoop=1;jettySize=auto;html=1;exitX=1;exitY=0.5;exitDx=0;exitDy=0;" edge="1" parent="1" source="eSohDNSTdxoi8HiKPgiF-24">
          <mxGeometry relative="1" as="geometry">
            <mxPoint x="630" y="315" as="targetPoint" />
          </mxGeometry>
        </mxCell>
        <mxCell id="eSohDNSTdxoi8HiKPgiF-24" value="$$\varphi$$" style="rounded=0;whiteSpace=wrap;html=1;strokeWidth=2;fontSize=19;" vertex="1" parent="1">
          <mxGeometry x="510" y="290" width="60" height="50" as="geometry" />
        </mxCell>
        <mxCell id="eSohDNSTdxoi8HiKPgiF-27" value="$$y_k$$" style="text;html=1;align=center;verticalAlign=middle;whiteSpace=wrap;rounded=0;fontSize=16;" vertex="1" parent="1">
          <mxGeometry x="638" y="302" width="20" height="20" as="geometry" />
        </mxCell>
        <mxCell id="eSohDNSTdxoi8HiKPgiF-30" value="Bias" style="text;html=1;align=center;verticalAlign=middle;whiteSpace=wrap;rounded=0;fontSize=15;fontColor=#FF9933;fontFamily=Comic Sans MS;" vertex="1" parent="1">
          <mxGeometry x="422" y="160" width="48" height="30" as="geometry" />
        </mxCell>
        <mxCell id="eSohDNSTdxoi8HiKPgiF-32" value="Summing" style="text;html=1;align=center;verticalAlign=middle;whiteSpace=wrap;rounded=0;fontSize=15;fontColor=#FF9933;fontFamily=Comic Sans MS;" vertex="1" parent="1">
          <mxGeometry x="389" y="340" width="80" height="30" as="geometry" />
        </mxCell>
        <mxCell id="eSohDNSTdxoi8HiKPgiF-33" value="Activation Function" style="text;html=1;align=center;verticalAlign=middle;whiteSpace=wrap;rounded=0;fontSize=15;fontColor=#FF9933;fontFamily=Comic Sans MS;" vertex="1" parent="1">
          <mxGeometry x="500" y="350" width="80" height="30" as="geometry" />
        </mxCell>
        <mxCell id="eSohDNSTdxoi8HiKPgiF-34" value="Output" style="text;html=1;align=center;verticalAlign=middle;whiteSpace=wrap;rounded=0;fontSize=15;fontColor=#FF9933;fontFamily=Comic Sans MS;" vertex="1" parent="1">
          <mxGeometry x="608" y="270" width="80" height="30" as="geometry" />
        </mxCell>
        <mxCell id="eSohDNSTdxoi8HiKPgiF-35" value="Inputs" style="text;html=1;align=center;verticalAlign=middle;whiteSpace=wrap;rounded=0;fontSize=15;fontColor=#FF9933;fontFamily=Comic Sans MS;" vertex="1" parent="1">
          <mxGeometry x="126" y="190" width="48" height="30" as="geometry" />
        </mxCell>
        <mxCell id="eSohDNSTdxoi8HiKPgiF-37" value="$$y_k=\varphi(W_{k1}x_1+W_{k2}x_2+W_{k3}x_3+B_k)$$" style="text;html=1;align=center;verticalAlign=middle;whiteSpace=wrap;rounded=0;fontSize=16;" vertex="1" parent="1">
          <mxGeometry x="254.5" y="430" width="319" height="20" as="geometry" />
        </mxCell>
        <mxCell id="eSohDNSTdxoi8HiKPgiF-39" value="Weights" style="text;html=1;align=center;verticalAlign=middle;whiteSpace=wrap;rounded=0;fontSize=15;fontColor=#FF9933;fontFamily=Comic Sans MS;" vertex="1" parent="1">
          <mxGeometry x="232" y="180" width="48" height="30" as="geometry" />
        </mxCell>
        <mxCell id="eSohDNSTdxoi8HiKPgiF-40" value="" style="ellipse;whiteSpace=wrap;html=1;aspect=fixed;" vertex="1" parent="1">
          <mxGeometry x="219.5" y="520" width="30" height="30" as="geometry" />
        </mxCell>
        <mxCell id="eSohDNSTdxoi8HiKPgiF-41" value="" style="ellipse;whiteSpace=wrap;html=1;aspect=fixed;" vertex="1" parent="1">
          <mxGeometry x="219.5" y="570" width="30" height="30" as="geometry" />
        </mxCell>
        <mxCell id="eSohDNSTdxoi8HiKPgiF-42" value="" style="ellipse;whiteSpace=wrap;html=1;aspect=fixed;" vertex="1" parent="1">
          <mxGeometry x="219.5" y="670" width="30" height="30" as="geometry" />
        </mxCell>
        <mxCell id="eSohDNSTdxoi8HiKPgiF-43" value="" style="ellipse;whiteSpace=wrap;html=1;aspect=fixed;" vertex="1" parent="1">
          <mxGeometry x="219.5" y="620" width="30" height="30" as="geometry" />
        </mxCell>
        <mxCell id="eSohDNSTdxoi8HiKPgiF-44" value="" style="ellipse;whiteSpace=wrap;html=1;aspect=fixed;" vertex="1" parent="1">
          <mxGeometry x="219.5" y="720" width="30" height="30" as="geometry" />
        </mxCell>
        <mxCell id="eSohDNSTdxoi8HiKPgiF-50" value="" style="ellipse;whiteSpace=wrap;html=1;aspect=fixed;" vertex="1" parent="1">
          <mxGeometry x="315" y="520" width="30" height="30" as="geometry" />
        </mxCell>
        <mxCell id="eSohDNSTdxoi8HiKPgiF-51" value="" style="ellipse;whiteSpace=wrap;html=1;aspect=fixed;" vertex="1" parent="1">
          <mxGeometry x="315" y="570" width="30" height="30" as="geometry" />
        </mxCell>
        <mxCell id="eSohDNSTdxoi8HiKPgiF-52" value="" style="ellipse;whiteSpace=wrap;html=1;aspect=fixed;" vertex="1" parent="1">
          <mxGeometry x="315" y="670" width="30" height="30" as="geometry" />
        </mxCell>
        <mxCell id="eSohDNSTdxoi8HiKPgiF-53" value="" style="ellipse;whiteSpace=wrap;html=1;aspect=fixed;" vertex="1" parent="1">
          <mxGeometry x="315" y="620" width="30" height="30" as="geometry" />
        </mxCell>
        <mxCell id="eSohDNSTdxoi8HiKPgiF-54" value="" style="ellipse;whiteSpace=wrap;html=1;aspect=fixed;" vertex="1" parent="1">
          <mxGeometry x="315" y="720" width="30" height="30" as="geometry" />
        </mxCell>
        <mxCell id="eSohDNSTdxoi8HiKPgiF-60" value="" style="endArrow=none;html=1;rounded=0;exitX=1;exitY=0.5;exitDx=0;exitDy=0;entryX=0;entryY=0.5;entryDx=0;entryDy=0;endFill=0;strokeColor=#808080;" edge="1" parent="1" source="eSohDNSTdxoi8HiKPgiF-40" target="eSohDNSTdxoi8HiKPgiF-50">
          <mxGeometry width="50" height="50" relative="1" as="geometry">
            <mxPoint x="280" y="530" as="sourcePoint" />
            <mxPoint x="330" y="480" as="targetPoint" />
          </mxGeometry>
        </mxCell>
        <mxCell id="eSohDNSTdxoi8HiKPgiF-61" value="" style="endArrow=none;html=1;rounded=0;exitX=1;exitY=0.5;exitDx=0;exitDy=0;entryX=0;entryY=0.5;entryDx=0;entryDy=0;endFill=0;strokeColor=#808080;" edge="1" parent="1" source="eSohDNSTdxoi8HiKPgiF-40" target="eSohDNSTdxoi8HiKPgiF-54">
          <mxGeometry width="50" height="50" relative="1" as="geometry">
            <mxPoint x="260" y="545" as="sourcePoint" />
            <mxPoint x="325" y="545" as="targetPoint" />
          </mxGeometry>
        </mxCell>
        <mxCell id="eSohDNSTdxoi8HiKPgiF-62" value="" style="endArrow=none;html=1;rounded=0;exitX=1;exitY=0.5;exitDx=0;exitDy=0;entryX=0;entryY=0.5;entryDx=0;entryDy=0;endFill=0;strokeColor=#808080;" edge="1" parent="1" source="eSohDNSTdxoi8HiKPgiF-40" target="eSohDNSTdxoi8HiKPgiF-51">
          <mxGeometry width="50" height="50" relative="1" as="geometry">
            <mxPoint x="260" y="545" as="sourcePoint" />
            <mxPoint x="325" y="745" as="targetPoint" />
          </mxGeometry>
        </mxCell>
        <mxCell id="eSohDNSTdxoi8HiKPgiF-63" value="" style="endArrow=none;html=1;rounded=0;exitX=1;exitY=0.5;exitDx=0;exitDy=0;entryX=0;entryY=0.5;entryDx=0;entryDy=0;endFill=0;strokeColor=#808080;" edge="1" parent="1" source="eSohDNSTdxoi8HiKPgiF-40" target="eSohDNSTdxoi8HiKPgiF-53">
          <mxGeometry width="50" height="50" relative="1" as="geometry">
            <mxPoint x="260" y="545" as="sourcePoint" />
            <mxPoint x="325" y="595" as="targetPoint" />
          </mxGeometry>
        </mxCell>
        <mxCell id="eSohDNSTdxoi8HiKPgiF-64" value="" style="endArrow=none;html=1;rounded=0;exitX=1;exitY=0.5;exitDx=0;exitDy=0;entryX=0;entryY=0.5;entryDx=0;entryDy=0;endFill=0;strokeColor=#808080;" edge="1" parent="1" source="eSohDNSTdxoi8HiKPgiF-40" target="eSohDNSTdxoi8HiKPgiF-52">
          <mxGeometry width="50" height="50" relative="1" as="geometry">
            <mxPoint x="260" y="545" as="sourcePoint" />
            <mxPoint x="325" y="645" as="targetPoint" />
          </mxGeometry>
        </mxCell>
        <mxCell id="eSohDNSTdxoi8HiKPgiF-67" value="" style="endArrow=none;html=1;rounded=0;exitX=1;exitY=0.5;exitDx=0;exitDy=0;entryX=0;entryY=0.5;entryDx=0;entryDy=0;endFill=0;strokeColor=#808080;" edge="1" parent="1" source="eSohDNSTdxoi8HiKPgiF-41" target="eSohDNSTdxoi8HiKPgiF-50">
          <mxGeometry width="50" height="50" relative="1" as="geometry">
            <mxPoint x="490" y="580" as="sourcePoint" />
            <mxPoint x="540" y="530" as="targetPoint" />
          </mxGeometry>
        </mxCell>
        <mxCell id="eSohDNSTdxoi8HiKPgiF-68" value="" style="endArrow=none;html=1;rounded=0;exitX=1;exitY=0.5;exitDx=0;exitDy=0;entryX=0;entryY=0.5;entryDx=0;entryDy=0;endFill=0;strokeColor=#808080;" edge="1" parent="1" source="eSohDNSTdxoi8HiKPgiF-43" target="eSohDNSTdxoi8HiKPgiF-50">
          <mxGeometry width="50" height="50" relative="1" as="geometry">
            <mxPoint x="259" y="595" as="sourcePoint" />
            <mxPoint x="325" y="545" as="targetPoint" />
          </mxGeometry>
        </mxCell>
        <mxCell id="eSohDNSTdxoi8HiKPgiF-69" value="" style="endArrow=none;html=1;rounded=0;exitX=1;exitY=0.5;exitDx=0;exitDy=0;entryX=0;entryY=0.5;entryDx=0;entryDy=0;endFill=0;strokeColor=#808080;" edge="1" parent="1" source="eSohDNSTdxoi8HiKPgiF-42" target="eSohDNSTdxoi8HiKPgiF-50">
          <mxGeometry width="50" height="50" relative="1" as="geometry">
            <mxPoint x="259" y="645" as="sourcePoint" />
            <mxPoint x="325" y="545" as="targetPoint" />
          </mxGeometry>
        </mxCell>
        <mxCell id="eSohDNSTdxoi8HiKPgiF-70" value="" style="endArrow=none;html=1;rounded=0;exitX=1;exitY=0.5;exitDx=0;exitDy=0;entryX=0;entryY=0.5;entryDx=0;entryDy=0;endFill=0;strokeColor=#808080;" edge="1" parent="1" source="eSohDNSTdxoi8HiKPgiF-44" target="eSohDNSTdxoi8HiKPgiF-50">
          <mxGeometry width="50" height="50" relative="1" as="geometry">
            <mxPoint x="249" y="720" as="sourcePoint" />
            <mxPoint x="315" y="570" as="targetPoint" />
          </mxGeometry>
        </mxCell>
        <mxCell id="eSohDNSTdxoi8HiKPgiF-72" value="" style="endArrow=none;html=1;rounded=0;exitX=1;exitY=0.5;exitDx=0;exitDy=0;entryX=0;entryY=0.5;entryDx=0;entryDy=0;strokeColor=#808080;" edge="1" parent="1" source="eSohDNSTdxoi8HiKPgiF-41" target="eSohDNSTdxoi8HiKPgiF-51">
          <mxGeometry width="50" height="50" relative="1" as="geometry">
            <mxPoint x="360" y="640" as="sourcePoint" />
            <mxPoint x="410" y="590" as="targetPoint" />
          </mxGeometry>
        </mxCell>
        <mxCell id="eSohDNSTdxoi8HiKPgiF-73" value="" style="endArrow=none;html=1;rounded=0;exitX=1;exitY=0.5;exitDx=0;exitDy=0;entryX=0;entryY=0.5;entryDx=0;entryDy=0;strokeColor=#808080;" edge="1" parent="1" source="eSohDNSTdxoi8HiKPgiF-41" target="eSohDNSTdxoi8HiKPgiF-53">
          <mxGeometry width="50" height="50" relative="1" as="geometry">
            <mxPoint x="260" y="595" as="sourcePoint" />
            <mxPoint x="325" y="595" as="targetPoint" />
          </mxGeometry>
        </mxCell>
        <mxCell id="eSohDNSTdxoi8HiKPgiF-74" value="" style="endArrow=none;html=1;rounded=0;exitX=1;exitY=0.5;exitDx=0;exitDy=0;entryX=0;entryY=0.5;entryDx=0;entryDy=0;strokeColor=#808080;" edge="1" parent="1" source="eSohDNSTdxoi8HiKPgiF-41" target="eSohDNSTdxoi8HiKPgiF-52">
          <mxGeometry width="50" height="50" relative="1" as="geometry">
            <mxPoint x="260" y="595" as="sourcePoint" />
            <mxPoint x="325" y="645" as="targetPoint" />
          </mxGeometry>
        </mxCell>
        <mxCell id="eSohDNSTdxoi8HiKPgiF-75" value="" style="endArrow=none;html=1;rounded=0;exitX=1;exitY=0.5;exitDx=0;exitDy=0;entryX=0;entryY=0.5;entryDx=0;entryDy=0;strokeColor=#808080;" edge="1" parent="1" source="eSohDNSTdxoi8HiKPgiF-41" target="eSohDNSTdxoi8HiKPgiF-54">
          <mxGeometry width="50" height="50" relative="1" as="geometry">
            <mxPoint x="260" y="595" as="sourcePoint" />
            <mxPoint x="325" y="695" as="targetPoint" />
          </mxGeometry>
        </mxCell>
        <mxCell id="eSohDNSTdxoi8HiKPgiF-76" value="" style="endArrow=none;html=1;rounded=0;exitX=1;exitY=0.5;exitDx=0;exitDy=0;entryX=0;entryY=0.5;entryDx=0;entryDy=0;strokeColor=#808080;" edge="1" parent="1" source="eSohDNSTdxoi8HiKPgiF-43" target="eSohDNSTdxoi8HiKPgiF-53">
          <mxGeometry width="50" height="50" relative="1" as="geometry">
            <mxPoint x="260" y="595" as="sourcePoint" />
            <mxPoint x="325" y="745" as="targetPoint" />
          </mxGeometry>
        </mxCell>
        <mxCell id="eSohDNSTdxoi8HiKPgiF-77" value="" style="endArrow=none;html=1;rounded=0;exitX=1;exitY=0.5;exitDx=0;exitDy=0;entryX=0;entryY=0.5;entryDx=0;entryDy=0;strokeColor=#808080;" edge="1" parent="1" source="eSohDNSTdxoi8HiKPgiF-43" target="eSohDNSTdxoi8HiKPgiF-51">
          <mxGeometry width="50" height="50" relative="1" as="geometry">
            <mxPoint x="260" y="645" as="sourcePoint" />
            <mxPoint x="325" y="645" as="targetPoint" />
          </mxGeometry>
        </mxCell>
        <mxCell id="eSohDNSTdxoi8HiKPgiF-78" value="" style="endArrow=none;html=1;rounded=0;exitX=1;exitY=0.5;exitDx=0;exitDy=0;entryX=0;entryY=0.5;entryDx=0;entryDy=0;strokeColor=#808080;" edge="1" parent="1" source="eSohDNSTdxoi8HiKPgiF-42" target="eSohDNSTdxoi8HiKPgiF-51">
          <mxGeometry width="50" height="50" relative="1" as="geometry">
            <mxPoint x="260" y="645" as="sourcePoint" />
            <mxPoint x="325" y="595" as="targetPoint" />
          </mxGeometry>
        </mxCell>
        <mxCell id="eSohDNSTdxoi8HiKPgiF-79" value="" style="endArrow=none;html=1;rounded=0;exitX=1;exitY=0.5;exitDx=0;exitDy=0;entryX=0;entryY=0.5;entryDx=0;entryDy=0;strokeColor=#808080;" edge="1" parent="1" source="eSohDNSTdxoi8HiKPgiF-42" target="eSohDNSTdxoi8HiKPgiF-53">
          <mxGeometry width="50" height="50" relative="1" as="geometry">
            <mxPoint x="260" y="695" as="sourcePoint" />
            <mxPoint x="325" y="595" as="targetPoint" />
          </mxGeometry>
        </mxCell>
        <mxCell id="eSohDNSTdxoi8HiKPgiF-80" value="" style="endArrow=none;html=1;rounded=0;exitX=1;exitY=0.5;exitDx=0;exitDy=0;entryX=0;entryY=0.5;entryDx=0;entryDy=0;strokeColor=#808080;" edge="1" parent="1" source="eSohDNSTdxoi8HiKPgiF-42" target="eSohDNSTdxoi8HiKPgiF-52">
          <mxGeometry width="50" height="50" relative="1" as="geometry">
            <mxPoint x="260" y="695" as="sourcePoint" />
            <mxPoint x="325" y="645" as="targetPoint" />
          </mxGeometry>
        </mxCell>
        <mxCell id="eSohDNSTdxoi8HiKPgiF-81" value="" style="endArrow=none;html=1;rounded=0;exitX=1;exitY=0.5;exitDx=0;exitDy=0;entryX=0;entryY=0.5;entryDx=0;entryDy=0;strokeColor=#808080;" edge="1" parent="1" source="eSohDNSTdxoi8HiKPgiF-42" target="eSohDNSTdxoi8HiKPgiF-54">
          <mxGeometry width="50" height="50" relative="1" as="geometry">
            <mxPoint x="260" y="695" as="sourcePoint" />
            <mxPoint x="325" y="695" as="targetPoint" />
          </mxGeometry>
        </mxCell>
        <mxCell id="eSohDNSTdxoi8HiKPgiF-82" value="" style="endArrow=none;html=1;rounded=0;exitX=1;exitY=0.5;exitDx=0;exitDy=0;entryX=0;entryY=0.5;entryDx=0;entryDy=0;strokeColor=#808080;" edge="1" parent="1" source="eSohDNSTdxoi8HiKPgiF-44" target="eSohDNSTdxoi8HiKPgiF-52">
          <mxGeometry width="50" height="50" relative="1" as="geometry">
            <mxPoint x="260" y="695" as="sourcePoint" />
            <mxPoint x="325" y="745" as="targetPoint" />
          </mxGeometry>
        </mxCell>
        <mxCell id="eSohDNSTdxoi8HiKPgiF-83" value="" style="endArrow=none;html=1;rounded=0;exitX=1;exitY=0.5;exitDx=0;exitDy=0;entryX=0;entryY=0.5;entryDx=0;entryDy=0;strokeColor=#808080;" edge="1" parent="1" source="eSohDNSTdxoi8HiKPgiF-44" target="eSohDNSTdxoi8HiKPgiF-51">
          <mxGeometry width="50" height="50" relative="1" as="geometry">
            <mxPoint x="260" y="745" as="sourcePoint" />
            <mxPoint x="325" y="695" as="targetPoint" />
          </mxGeometry>
        </mxCell>
        <mxCell id="eSohDNSTdxoi8HiKPgiF-84" value="" style="endArrow=none;html=1;rounded=0;exitX=1;exitY=0.5;exitDx=0;exitDy=0;entryX=0;entryY=0.5;entryDx=0;entryDy=0;strokeColor=#808080;" edge="1" parent="1" source="eSohDNSTdxoi8HiKPgiF-44" target="eSohDNSTdxoi8HiKPgiF-53">
          <mxGeometry width="50" height="50" relative="1" as="geometry">
            <mxPoint x="260" y="745" as="sourcePoint" />
            <mxPoint x="325" y="595" as="targetPoint" />
          </mxGeometry>
        </mxCell>
        <mxCell id="eSohDNSTdxoi8HiKPgiF-85" value="" style="endArrow=none;html=1;rounded=0;exitX=1;exitY=0.5;exitDx=0;exitDy=0;entryX=0;entryY=0.5;entryDx=0;entryDy=0;strokeColor=#808080;" edge="1" parent="1" source="eSohDNSTdxoi8HiKPgiF-44" target="eSohDNSTdxoi8HiKPgiF-54">
          <mxGeometry width="50" height="50" relative="1" as="geometry">
            <mxPoint x="260" y="745" as="sourcePoint" />
            <mxPoint x="325" y="645" as="targetPoint" />
          </mxGeometry>
        </mxCell>
        <mxCell id="eSohDNSTdxoi8HiKPgiF-86" value="" style="endArrow=none;html=1;rounded=0;exitX=1;exitY=0.5;exitDx=0;exitDy=0;entryX=0;entryY=0.5;entryDx=0;entryDy=0;strokeColor=#808080;" edge="1" parent="1" source="eSohDNSTdxoi8HiKPgiF-43" target="eSohDNSTdxoi8HiKPgiF-54">
          <mxGeometry width="50" height="50" relative="1" as="geometry">
            <mxPoint x="260" y="745" as="sourcePoint" />
            <mxPoint x="325" y="745" as="targetPoint" />
          </mxGeometry>
        </mxCell>
        <mxCell id="eSohDNSTdxoi8HiKPgiF-87" value="" style="endArrow=none;html=1;rounded=0;exitX=0;exitY=0.5;exitDx=0;exitDy=0;entryX=1;entryY=0.5;entryDx=0;entryDy=0;endFill=0;strokeColor=#808080;" edge="1" parent="1" source="eSohDNSTdxoi8HiKPgiF-52" target="eSohDNSTdxoi8HiKPgiF-43">
          <mxGeometry width="50" height="50" relative="1" as="geometry">
            <mxPoint x="335" y="545" as="sourcePoint" />
            <mxPoint x="400" y="745" as="targetPoint" />
          </mxGeometry>
        </mxCell>
        <mxCell id="eSohDNSTdxoi8HiKPgiF-88" value="" style="endArrow=classic;html=1;rounded=0;" edge="1" parent="1">
          <mxGeometry width="50" height="50" relative="1" as="geometry">
            <mxPoint x="270" y="810" as="sourcePoint" />
            <mxPoint x="390" y="810" as="targetPoint" />
          </mxGeometry>
        </mxCell>
        <mxCell id="eSohDNSTdxoi8HiKPgiF-89" value="" style="endArrow=none;html=1;rounded=0;exitX=1;exitY=0.5;exitDx=0;exitDy=0;entryX=0;entryY=0.5;entryDx=0;entryDy=0;endFill=0;strokeColor=#808080;" edge="1" parent="1">
          <mxGeometry width="50" height="50" relative="1" as="geometry">
            <mxPoint x="345" y="534.71" as="sourcePoint" />
            <mxPoint x="410" y="534.71" as="targetPoint" />
          </mxGeometry>
        </mxCell>
        <mxCell id="eSohDNSTdxoi8HiKPgiF-90" value="" style="endArrow=none;html=1;rounded=0;exitX=1;exitY=0.5;exitDx=0;exitDy=0;entryX=0;entryY=0.5;entryDx=0;entryDy=0;endFill=0;strokeColor=#808080;" edge="1" parent="1">
          <mxGeometry width="50" height="50" relative="1" as="geometry">
            <mxPoint x="345" y="534.71" as="sourcePoint" />
            <mxPoint x="410" y="734.71" as="targetPoint" />
          </mxGeometry>
        </mxCell>
        <mxCell id="eSohDNSTdxoi8HiKPgiF-91" value="" style="endArrow=none;html=1;rounded=0;exitX=1;exitY=0.5;exitDx=0;exitDy=0;entryX=0;entryY=0.5;entryDx=0;entryDy=0;endFill=0;strokeColor=#808080;" edge="1" parent="1">
          <mxGeometry width="50" height="50" relative="1" as="geometry">
            <mxPoint x="345" y="534.71" as="sourcePoint" />
            <mxPoint x="410" y="584.71" as="targetPoint" />
          </mxGeometry>
        </mxCell>
        <mxCell id="eSohDNSTdxoi8HiKPgiF-92" value="" style="endArrow=none;html=1;rounded=0;exitX=1;exitY=0.5;exitDx=0;exitDy=0;entryX=0;entryY=0.5;entryDx=0;entryDy=0;endFill=0;strokeColor=#808080;" edge="1" parent="1">
          <mxGeometry width="50" height="50" relative="1" as="geometry">
            <mxPoint x="345" y="534.71" as="sourcePoint" />
            <mxPoint x="410" y="634.71" as="targetPoint" />
          </mxGeometry>
        </mxCell>
        <mxCell id="eSohDNSTdxoi8HiKPgiF-93" value="" style="endArrow=none;html=1;rounded=0;exitX=1;exitY=0.5;exitDx=0;exitDy=0;entryX=0;entryY=0.5;entryDx=0;entryDy=0;endFill=0;strokeColor=#808080;" edge="1" parent="1">
          <mxGeometry width="50" height="50" relative="1" as="geometry">
            <mxPoint x="345" y="534.71" as="sourcePoint" />
            <mxPoint x="410" y="684.71" as="targetPoint" />
          </mxGeometry>
        </mxCell>
        <mxCell id="eSohDNSTdxoi8HiKPgiF-94" value="" style="endArrow=none;html=1;rounded=0;exitX=1;exitY=0.5;exitDx=0;exitDy=0;entryX=0;entryY=0.5;entryDx=0;entryDy=0;endFill=0;strokeColor=#808080;" edge="1" parent="1">
          <mxGeometry width="50" height="50" relative="1" as="geometry">
            <mxPoint x="345" y="584.71" as="sourcePoint" />
            <mxPoint x="410" y="534.71" as="targetPoint" />
          </mxGeometry>
        </mxCell>
        <mxCell id="eSohDNSTdxoi8HiKPgiF-95" value="" style="endArrow=none;html=1;rounded=0;exitX=1;exitY=0.5;exitDx=0;exitDy=0;entryX=0;entryY=0.5;entryDx=0;entryDy=0;endFill=0;strokeColor=#808080;" edge="1" parent="1">
          <mxGeometry width="50" height="50" relative="1" as="geometry">
            <mxPoint x="345" y="634.71" as="sourcePoint" />
            <mxPoint x="410" y="534.71" as="targetPoint" />
          </mxGeometry>
        </mxCell>
        <mxCell id="eSohDNSTdxoi8HiKPgiF-96" value="" style="endArrow=none;html=1;rounded=0;exitX=1;exitY=0.5;exitDx=0;exitDy=0;entryX=0;entryY=0.5;entryDx=0;entryDy=0;endFill=0;strokeColor=#808080;" edge="1" parent="1">
          <mxGeometry width="50" height="50" relative="1" as="geometry">
            <mxPoint x="345" y="684.71" as="sourcePoint" />
            <mxPoint x="410" y="534.71" as="targetPoint" />
          </mxGeometry>
        </mxCell>
        <mxCell id="eSohDNSTdxoi8HiKPgiF-97" value="" style="endArrow=none;html=1;rounded=0;exitX=1;exitY=0.5;exitDx=0;exitDy=0;entryX=0;entryY=0.5;entryDx=0;entryDy=0;endFill=0;strokeColor=#808080;" edge="1" parent="1">
          <mxGeometry width="50" height="50" relative="1" as="geometry">
            <mxPoint x="345" y="734.71" as="sourcePoint" />
            <mxPoint x="410" y="534.71" as="targetPoint" />
          </mxGeometry>
        </mxCell>
        <mxCell id="eSohDNSTdxoi8HiKPgiF-98" value="" style="endArrow=none;html=1;rounded=0;exitX=1;exitY=0.5;exitDx=0;exitDy=0;entryX=0;entryY=0.5;entryDx=0;entryDy=0;strokeColor=#808080;" edge="1" parent="1">
          <mxGeometry width="50" height="50" relative="1" as="geometry">
            <mxPoint x="345" y="584.71" as="sourcePoint" />
            <mxPoint x="410" y="584.71" as="targetPoint" />
          </mxGeometry>
        </mxCell>
        <mxCell id="eSohDNSTdxoi8HiKPgiF-99" value="" style="endArrow=none;html=1;rounded=0;exitX=1;exitY=0.5;exitDx=0;exitDy=0;entryX=0;entryY=0.5;entryDx=0;entryDy=0;strokeColor=#808080;" edge="1" parent="1">
          <mxGeometry width="50" height="50" relative="1" as="geometry">
            <mxPoint x="345" y="584.71" as="sourcePoint" />
            <mxPoint x="410" y="634.71" as="targetPoint" />
          </mxGeometry>
        </mxCell>
        <mxCell id="eSohDNSTdxoi8HiKPgiF-100" value="" style="endArrow=none;html=1;rounded=0;exitX=1;exitY=0.5;exitDx=0;exitDy=0;entryX=0;entryY=0.5;entryDx=0;entryDy=0;strokeColor=#808080;" edge="1" parent="1">
          <mxGeometry width="50" height="50" relative="1" as="geometry">
            <mxPoint x="345" y="584.71" as="sourcePoint" />
            <mxPoint x="410" y="684.71" as="targetPoint" />
          </mxGeometry>
        </mxCell>
        <mxCell id="eSohDNSTdxoi8HiKPgiF-101" value="" style="endArrow=none;html=1;rounded=0;exitX=1;exitY=0.5;exitDx=0;exitDy=0;entryX=0;entryY=0.5;entryDx=0;entryDy=0;strokeColor=#808080;" edge="1" parent="1">
          <mxGeometry width="50" height="50" relative="1" as="geometry">
            <mxPoint x="345" y="584.71" as="sourcePoint" />
            <mxPoint x="410" y="734.71" as="targetPoint" />
          </mxGeometry>
        </mxCell>
        <mxCell id="eSohDNSTdxoi8HiKPgiF-102" value="" style="endArrow=none;html=1;rounded=0;exitX=1;exitY=0.5;exitDx=0;exitDy=0;entryX=0;entryY=0.5;entryDx=0;entryDy=0;strokeColor=#808080;" edge="1" parent="1">
          <mxGeometry width="50" height="50" relative="1" as="geometry">
            <mxPoint x="345" y="634.71" as="sourcePoint" />
            <mxPoint x="410" y="634.71" as="targetPoint" />
          </mxGeometry>
        </mxCell>
        <mxCell id="eSohDNSTdxoi8HiKPgiF-103" value="" style="endArrow=none;html=1;rounded=0;exitX=1;exitY=0.5;exitDx=0;exitDy=0;entryX=0;entryY=0.5;entryDx=0;entryDy=0;strokeColor=#808080;" edge="1" parent="1">
          <mxGeometry width="50" height="50" relative="1" as="geometry">
            <mxPoint x="345" y="634.71" as="sourcePoint" />
            <mxPoint x="410" y="584.71" as="targetPoint" />
          </mxGeometry>
        </mxCell>
        <mxCell id="eSohDNSTdxoi8HiKPgiF-104" value="" style="endArrow=none;html=1;rounded=0;exitX=1;exitY=0.5;exitDx=0;exitDy=0;entryX=0;entryY=0.5;entryDx=0;entryDy=0;strokeColor=#808080;" edge="1" parent="1">
          <mxGeometry width="50" height="50" relative="1" as="geometry">
            <mxPoint x="345" y="684.71" as="sourcePoint" />
            <mxPoint x="410" y="584.71" as="targetPoint" />
          </mxGeometry>
        </mxCell>
        <mxCell id="eSohDNSTdxoi8HiKPgiF-105" value="" style="endArrow=none;html=1;rounded=0;exitX=1;exitY=0.5;exitDx=0;exitDy=0;entryX=0;entryY=0.5;entryDx=0;entryDy=0;strokeColor=#808080;" edge="1" parent="1">
          <mxGeometry width="50" height="50" relative="1" as="geometry">
            <mxPoint x="345" y="684.71" as="sourcePoint" />
            <mxPoint x="410" y="634.71" as="targetPoint" />
          </mxGeometry>
        </mxCell>
        <mxCell id="eSohDNSTdxoi8HiKPgiF-106" value="" style="endArrow=none;html=1;rounded=0;exitX=1;exitY=0.5;exitDx=0;exitDy=0;entryX=0;entryY=0.5;entryDx=0;entryDy=0;strokeColor=#808080;" edge="1" parent="1">
          <mxGeometry width="50" height="50" relative="1" as="geometry">
            <mxPoint x="345" y="684.71" as="sourcePoint" />
            <mxPoint x="410" y="684.71" as="targetPoint" />
          </mxGeometry>
        </mxCell>
        <mxCell id="eSohDNSTdxoi8HiKPgiF-107" value="" style="endArrow=none;html=1;rounded=0;exitX=1;exitY=0.5;exitDx=0;exitDy=0;entryX=0;entryY=0.5;entryDx=0;entryDy=0;strokeColor=#808080;" edge="1" parent="1">
          <mxGeometry width="50" height="50" relative="1" as="geometry">
            <mxPoint x="345" y="684.71" as="sourcePoint" />
            <mxPoint x="410" y="734.71" as="targetPoint" />
          </mxGeometry>
        </mxCell>
        <mxCell id="eSohDNSTdxoi8HiKPgiF-108" value="" style="endArrow=none;html=1;rounded=0;exitX=1;exitY=0.5;exitDx=0;exitDy=0;entryX=0;entryY=0.5;entryDx=0;entryDy=0;strokeColor=#808080;" edge="1" parent="1">
          <mxGeometry width="50" height="50" relative="1" as="geometry">
            <mxPoint x="345" y="734.71" as="sourcePoint" />
            <mxPoint x="410" y="684.71" as="targetPoint" />
          </mxGeometry>
        </mxCell>
        <mxCell id="eSohDNSTdxoi8HiKPgiF-109" value="" style="endArrow=none;html=1;rounded=0;exitX=1;exitY=0.5;exitDx=0;exitDy=0;entryX=0;entryY=0.5;entryDx=0;entryDy=0;strokeColor=#808080;" edge="1" parent="1">
          <mxGeometry width="50" height="50" relative="1" as="geometry">
            <mxPoint x="345" y="734.71" as="sourcePoint" />
            <mxPoint x="410" y="584.71" as="targetPoint" />
          </mxGeometry>
        </mxCell>
        <mxCell id="eSohDNSTdxoi8HiKPgiF-110" value="" style="endArrow=none;html=1;rounded=0;exitX=1;exitY=0.5;exitDx=0;exitDy=0;entryX=0;entryY=0.5;entryDx=0;entryDy=0;strokeColor=#808080;" edge="1" parent="1">
          <mxGeometry width="50" height="50" relative="1" as="geometry">
            <mxPoint x="345" y="734.71" as="sourcePoint" />
            <mxPoint x="410" y="634.71" as="targetPoint" />
          </mxGeometry>
        </mxCell>
        <mxCell id="eSohDNSTdxoi8HiKPgiF-111" value="" style="endArrow=none;html=1;rounded=0;exitX=1;exitY=0.5;exitDx=0;exitDy=0;entryX=0;entryY=0.5;entryDx=0;entryDy=0;strokeColor=#808080;" edge="1" parent="1">
          <mxGeometry width="50" height="50" relative="1" as="geometry">
            <mxPoint x="345" y="734.71" as="sourcePoint" />
            <mxPoint x="410" y="734.71" as="targetPoint" />
          </mxGeometry>
        </mxCell>
        <mxCell id="eSohDNSTdxoi8HiKPgiF-112" value="" style="endArrow=none;html=1;rounded=0;exitX=1;exitY=0.5;exitDx=0;exitDy=0;entryX=0;entryY=0.5;entryDx=0;entryDy=0;strokeColor=#808080;" edge="1" parent="1">
          <mxGeometry width="50" height="50" relative="1" as="geometry">
            <mxPoint x="345" y="634.71" as="sourcePoint" />
            <mxPoint x="410" y="734.71" as="targetPoint" />
          </mxGeometry>
        </mxCell>
        <mxCell id="eSohDNSTdxoi8HiKPgiF-113" value="" style="endArrow=none;html=1;rounded=0;exitX=0;exitY=0.5;exitDx=0;exitDy=0;entryX=1;entryY=0.5;entryDx=0;entryDy=0;endFill=0;strokeColor=#808080;" edge="1" parent="1">
          <mxGeometry width="50" height="50" relative="1" as="geometry">
            <mxPoint x="410" y="684.71" as="sourcePoint" />
            <mxPoint x="345" y="634.71" as="targetPoint" />
          </mxGeometry>
        </mxCell>
        <mxCell id="eSohDNSTdxoi8HiKPgiF-114" value="" style="group" vertex="1" connectable="0" parent="1">
          <mxGeometry x="409" y="520" width="30" height="230" as="geometry" />
        </mxCell>
        <mxCell id="eSohDNSTdxoi8HiKPgiF-55" value="" style="ellipse;whiteSpace=wrap;html=1;aspect=fixed;" vertex="1" parent="eSohDNSTdxoi8HiKPgiF-114">
          <mxGeometry width="30" height="30" as="geometry" />
        </mxCell>
        <mxCell id="eSohDNSTdxoi8HiKPgiF-56" value="" style="ellipse;whiteSpace=wrap;html=1;aspect=fixed;" vertex="1" parent="eSohDNSTdxoi8HiKPgiF-114">
          <mxGeometry y="50" width="30" height="30" as="geometry" />
        </mxCell>
        <mxCell id="eSohDNSTdxoi8HiKPgiF-57" value="" style="ellipse;whiteSpace=wrap;html=1;aspect=fixed;" vertex="1" parent="eSohDNSTdxoi8HiKPgiF-114">
          <mxGeometry y="150" width="30" height="30" as="geometry" />
        </mxCell>
        <mxCell id="eSohDNSTdxoi8HiKPgiF-58" value="" style="ellipse;whiteSpace=wrap;html=1;aspect=fixed;" vertex="1" parent="eSohDNSTdxoi8HiKPgiF-114">
          <mxGeometry y="100" width="30" height="30" as="geometry" />
        </mxCell>
        <mxCell id="eSohDNSTdxoi8HiKPgiF-59" value="" style="ellipse;whiteSpace=wrap;html=1;aspect=fixed;" vertex="1" parent="eSohDNSTdxoi8HiKPgiF-114">
          <mxGeometry y="200" width="30" height="30" as="geometry" />
        </mxCell>
        <mxCell id="eSohDNSTdxoi8HiKPgiF-117" value="Data Flow" style="text;html=1;align=center;verticalAlign=middle;whiteSpace=wrap;rounded=0;" vertex="1" parent="1">
          <mxGeometry x="300" y="790" width="60" height="20" as="geometry" />
        </mxCell>
        <mxCell id="eSohDNSTdxoi8HiKPgiF-119" value="" style="ellipse;whiteSpace=wrap;html=1;aspect=fixed;" vertex="1" parent="1">
          <mxGeometry x="120" y="540" width="30" height="30" as="geometry" />
        </mxCell>
        <mxCell id="eSohDNSTdxoi8HiKPgiF-120" value="" style="ellipse;whiteSpace=wrap;html=1;aspect=fixed;" vertex="1" parent="1">
          <mxGeometry x="120" y="640" width="30" height="30" as="geometry" />
        </mxCell>
        <mxCell id="eSohDNSTdxoi8HiKPgiF-121" value="" style="ellipse;whiteSpace=wrap;html=1;aspect=fixed;" vertex="1" parent="1">
          <mxGeometry x="120" y="590" width="30" height="30" as="geometry" />
        </mxCell>
        <mxCell id="eSohDNSTdxoi8HiKPgiF-122" value="" style="ellipse;whiteSpace=wrap;html=1;aspect=fixed;" vertex="1" parent="1">
          <mxGeometry x="120" y="690" width="30" height="30" as="geometry" />
        </mxCell>
        <mxCell id="eSohDNSTdxoi8HiKPgiF-124" value="" style="ellipse;whiteSpace=wrap;html=1;aspect=fixed;" vertex="1" parent="1">
          <mxGeometry x="520" y="570" width="30" height="30" as="geometry" />
        </mxCell>
        <mxCell id="eSohDNSTdxoi8HiKPgiF-125" value="" style="ellipse;whiteSpace=wrap;html=1;aspect=fixed;" vertex="1" parent="1">
          <mxGeometry x="520" y="670" width="30" height="30" as="geometry" />
        </mxCell>
        <mxCell id="eSohDNSTdxoi8HiKPgiF-126" value="" style="ellipse;whiteSpace=wrap;html=1;aspect=fixed;" vertex="1" parent="1">
          <mxGeometry x="520" y="620" width="30" height="30" as="geometry" />
        </mxCell>
        <mxCell id="eSohDNSTdxoi8HiKPgiF-136" value="" style="endArrow=none;html=1;rounded=0;exitX=1;exitY=0.5;exitDx=0;exitDy=0;entryX=0;entryY=0.5;entryDx=0;entryDy=0;strokeColor=#808080;" edge="1" parent="1" source="eSohDNSTdxoi8HiKPgiF-119" target="eSohDNSTdxoi8HiKPgiF-40">
          <mxGeometry width="50" height="50" relative="1" as="geometry">
            <mxPoint x="140" y="490" as="sourcePoint" />
            <mxPoint x="190" y="440" as="targetPoint" />
          </mxGeometry>
        </mxCell>
        <mxCell id="eSohDNSTdxoi8HiKPgiF-137" value="" style="endArrow=none;html=1;rounded=0;exitX=1;exitY=0.5;exitDx=0;exitDy=0;entryX=0;entryY=0.5;entryDx=0;entryDy=0;strokeColor=#808080;" edge="1" parent="1" source="eSohDNSTdxoi8HiKPgiF-119" target="eSohDNSTdxoi8HiKPgiF-41">
          <mxGeometry width="50" height="50" relative="1" as="geometry">
            <mxPoint x="160" y="565" as="sourcePoint" />
            <mxPoint x="229" y="545" as="targetPoint" />
          </mxGeometry>
        </mxCell>
        <mxCell id="eSohDNSTdxoi8HiKPgiF-138" value="" style="endArrow=none;html=1;rounded=0;exitX=1;exitY=0.5;exitDx=0;exitDy=0;entryX=0;entryY=0.5;entryDx=0;entryDy=0;strokeColor=#808080;" edge="1" parent="1" source="eSohDNSTdxoi8HiKPgiF-119" target="eSohDNSTdxoi8HiKPgiF-43">
          <mxGeometry width="50" height="50" relative="1" as="geometry">
            <mxPoint x="160" y="565" as="sourcePoint" />
            <mxPoint x="229" y="595" as="targetPoint" />
          </mxGeometry>
        </mxCell>
        <mxCell id="eSohDNSTdxoi8HiKPgiF-139" value="" style="endArrow=none;html=1;rounded=0;exitX=1;exitY=0.5;exitDx=0;exitDy=0;entryX=0;entryY=0.5;entryDx=0;entryDy=0;strokeColor=#808080;" edge="1" parent="1" source="eSohDNSTdxoi8HiKPgiF-119" target="eSohDNSTdxoi8HiKPgiF-42">
          <mxGeometry width="50" height="50" relative="1" as="geometry">
            <mxPoint x="160" y="565" as="sourcePoint" />
            <mxPoint x="229" y="645" as="targetPoint" />
          </mxGeometry>
        </mxCell>
        <mxCell id="eSohDNSTdxoi8HiKPgiF-140" value="" style="endArrow=none;html=1;rounded=0;exitX=1;exitY=0.5;exitDx=0;exitDy=0;entryX=0;entryY=0.5;entryDx=0;entryDy=0;strokeColor=#808080;" edge="1" parent="1" source="eSohDNSTdxoi8HiKPgiF-119" target="eSohDNSTdxoi8HiKPgiF-44">
          <mxGeometry width="50" height="50" relative="1" as="geometry">
            <mxPoint x="160" y="565" as="sourcePoint" />
            <mxPoint x="229" y="695" as="targetPoint" />
          </mxGeometry>
        </mxCell>
        <mxCell id="eSohDNSTdxoi8HiKPgiF-141" value="" style="endArrow=none;html=1;rounded=0;exitX=1;exitY=0.5;exitDx=0;exitDy=0;entryX=0;entryY=0.5;entryDx=0;entryDy=0;strokeColor=#808080;" edge="1" parent="1" source="eSohDNSTdxoi8HiKPgiF-121" target="eSohDNSTdxoi8HiKPgiF-40">
          <mxGeometry width="50" height="50" relative="1" as="geometry">
            <mxPoint x="160" y="565" as="sourcePoint" />
            <mxPoint x="229" y="745" as="targetPoint" />
          </mxGeometry>
        </mxCell>
        <mxCell id="eSohDNSTdxoi8HiKPgiF-142" value="" style="endArrow=none;html=1;rounded=0;exitX=1;exitY=0.5;exitDx=0;exitDy=0;entryX=0;entryY=0.5;entryDx=0;entryDy=0;strokeColor=#808080;" edge="1" parent="1" source="eSohDNSTdxoi8HiKPgiF-121" target="eSohDNSTdxoi8HiKPgiF-41">
          <mxGeometry width="50" height="50" relative="1" as="geometry">
            <mxPoint x="160" y="615" as="sourcePoint" />
            <mxPoint x="229" y="545" as="targetPoint" />
          </mxGeometry>
        </mxCell>
        <mxCell id="eSohDNSTdxoi8HiKPgiF-143" value="" style="endArrow=none;html=1;rounded=0;exitX=1;exitY=0.5;exitDx=0;exitDy=0;entryX=0;entryY=0.5;entryDx=0;entryDy=0;strokeColor=#808080;" edge="1" parent="1" source="eSohDNSTdxoi8HiKPgiF-121" target="eSohDNSTdxoi8HiKPgiF-43">
          <mxGeometry width="50" height="50" relative="1" as="geometry">
            <mxPoint x="160" y="615" as="sourcePoint" />
            <mxPoint x="229" y="595" as="targetPoint" />
          </mxGeometry>
        </mxCell>
        <mxCell id="eSohDNSTdxoi8HiKPgiF-144" value="" style="endArrow=none;html=1;rounded=0;exitX=1;exitY=0.5;exitDx=0;exitDy=0;entryX=0;entryY=0.5;entryDx=0;entryDy=0;strokeColor=#808080;" edge="1" parent="1" source="eSohDNSTdxoi8HiKPgiF-121" target="eSohDNSTdxoi8HiKPgiF-42">
          <mxGeometry width="50" height="50" relative="1" as="geometry">
            <mxPoint x="160" y="615" as="sourcePoint" />
            <mxPoint x="229" y="645" as="targetPoint" />
          </mxGeometry>
        </mxCell>
        <mxCell id="eSohDNSTdxoi8HiKPgiF-145" value="" style="endArrow=none;html=1;rounded=0;exitX=1;exitY=0.5;exitDx=0;exitDy=0;entryX=0;entryY=0.5;entryDx=0;entryDy=0;strokeColor=#808080;" edge="1" parent="1" source="eSohDNSTdxoi8HiKPgiF-121" target="eSohDNSTdxoi8HiKPgiF-44">
          <mxGeometry width="50" height="50" relative="1" as="geometry">
            <mxPoint x="160" y="615" as="sourcePoint" />
            <mxPoint x="229" y="695" as="targetPoint" />
          </mxGeometry>
        </mxCell>
        <mxCell id="eSohDNSTdxoi8HiKPgiF-146" value="" style="endArrow=none;html=1;rounded=0;exitX=1;exitY=0.5;exitDx=0;exitDy=0;entryX=0;entryY=0.5;entryDx=0;entryDy=0;strokeColor=#808080;" edge="1" parent="1" source="eSohDNSTdxoi8HiKPgiF-120" target="eSohDNSTdxoi8HiKPgiF-40">
          <mxGeometry width="50" height="50" relative="1" as="geometry">
            <mxPoint x="160" y="615" as="sourcePoint" />
            <mxPoint x="229" y="745" as="targetPoint" />
          </mxGeometry>
        </mxCell>
        <mxCell id="eSohDNSTdxoi8HiKPgiF-147" value="" style="endArrow=none;html=1;rounded=0;exitX=1;exitY=0.5;exitDx=0;exitDy=0;entryX=0;entryY=0.5;entryDx=0;entryDy=0;strokeColor=#808080;" edge="1" parent="1" source="eSohDNSTdxoi8HiKPgiF-120" target="eSohDNSTdxoi8HiKPgiF-41">
          <mxGeometry width="50" height="50" relative="1" as="geometry">
            <mxPoint x="160" y="665" as="sourcePoint" />
            <mxPoint x="229" y="545" as="targetPoint" />
          </mxGeometry>
        </mxCell>
        <mxCell id="eSohDNSTdxoi8HiKPgiF-148" value="" style="endArrow=none;html=1;rounded=0;exitX=1;exitY=0.5;exitDx=0;exitDy=0;entryX=0;entryY=0.5;entryDx=0;entryDy=0;strokeColor=#808080;" edge="1" parent="1" source="eSohDNSTdxoi8HiKPgiF-120" target="eSohDNSTdxoi8HiKPgiF-43">
          <mxGeometry width="50" height="50" relative="1" as="geometry">
            <mxPoint x="160" y="665" as="sourcePoint" />
            <mxPoint x="229" y="595" as="targetPoint" />
          </mxGeometry>
        </mxCell>
        <mxCell id="eSohDNSTdxoi8HiKPgiF-149" value="" style="endArrow=none;html=1;rounded=0;exitX=1;exitY=0.5;exitDx=0;exitDy=0;entryX=0;entryY=0.5;entryDx=0;entryDy=0;strokeColor=#808080;" edge="1" parent="1" source="eSohDNSTdxoi8HiKPgiF-120" target="eSohDNSTdxoi8HiKPgiF-42">
          <mxGeometry width="50" height="50" relative="1" as="geometry">
            <mxPoint x="160" y="665" as="sourcePoint" />
            <mxPoint x="229" y="645" as="targetPoint" />
          </mxGeometry>
        </mxCell>
        <mxCell id="eSohDNSTdxoi8HiKPgiF-150" value="" style="endArrow=none;html=1;rounded=0;exitX=1;exitY=0.5;exitDx=0;exitDy=0;entryX=0;entryY=0.5;entryDx=0;entryDy=0;strokeColor=#808080;" edge="1" parent="1" source="eSohDNSTdxoi8HiKPgiF-120" target="eSohDNSTdxoi8HiKPgiF-44">
          <mxGeometry width="50" height="50" relative="1" as="geometry">
            <mxPoint x="160" y="665" as="sourcePoint" />
            <mxPoint x="229" y="695" as="targetPoint" />
          </mxGeometry>
        </mxCell>
        <mxCell id="eSohDNSTdxoi8HiKPgiF-151" value="" style="endArrow=none;html=1;rounded=0;exitX=1;exitY=0.5;exitDx=0;exitDy=0;entryX=0;entryY=0.5;entryDx=0;entryDy=0;strokeColor=#808080;" edge="1" parent="1" source="eSohDNSTdxoi8HiKPgiF-122" target="eSohDNSTdxoi8HiKPgiF-40">
          <mxGeometry width="50" height="50" relative="1" as="geometry">
            <mxPoint x="160" y="665" as="sourcePoint" />
            <mxPoint x="229" y="745" as="targetPoint" />
          </mxGeometry>
        </mxCell>
        <mxCell id="eSohDNSTdxoi8HiKPgiF-152" value="" style="endArrow=none;html=1;rounded=0;exitX=1;exitY=0.5;exitDx=0;exitDy=0;entryX=0;entryY=0.5;entryDx=0;entryDy=0;strokeColor=#808080;" edge="1" parent="1" source="eSohDNSTdxoi8HiKPgiF-122" target="eSohDNSTdxoi8HiKPgiF-41">
          <mxGeometry width="50" height="50" relative="1" as="geometry">
            <mxPoint x="160" y="715" as="sourcePoint" />
            <mxPoint x="229" y="545" as="targetPoint" />
          </mxGeometry>
        </mxCell>
        <mxCell id="eSohDNSTdxoi8HiKPgiF-153" value="" style="endArrow=none;html=1;rounded=0;exitX=1;exitY=0.5;exitDx=0;exitDy=0;entryX=0;entryY=0.5;entryDx=0;entryDy=0;strokeColor=#808080;" edge="1" parent="1" source="eSohDNSTdxoi8HiKPgiF-122" target="eSohDNSTdxoi8HiKPgiF-43">
          <mxGeometry width="50" height="50" relative="1" as="geometry">
            <mxPoint x="160" y="715" as="sourcePoint" />
            <mxPoint x="229" y="595" as="targetPoint" />
          </mxGeometry>
        </mxCell>
        <mxCell id="eSohDNSTdxoi8HiKPgiF-154" value="" style="endArrow=none;html=1;rounded=0;exitX=1;exitY=0.5;exitDx=0;exitDy=0;entryX=0;entryY=0.5;entryDx=0;entryDy=0;strokeColor=#808080;" edge="1" parent="1" source="eSohDNSTdxoi8HiKPgiF-122" target="eSohDNSTdxoi8HiKPgiF-42">
          <mxGeometry width="50" height="50" relative="1" as="geometry">
            <mxPoint x="160" y="715" as="sourcePoint" />
            <mxPoint x="229" y="645" as="targetPoint" />
          </mxGeometry>
        </mxCell>
        <mxCell id="eSohDNSTdxoi8HiKPgiF-155" value="" style="endArrow=none;html=1;rounded=0;exitX=1;exitY=0.5;exitDx=0;exitDy=0;entryX=0;entryY=0.5;entryDx=0;entryDy=0;strokeColor=#808080;" edge="1" parent="1" source="eSohDNSTdxoi8HiKPgiF-122" target="eSohDNSTdxoi8HiKPgiF-44">
          <mxGeometry width="50" height="50" relative="1" as="geometry">
            <mxPoint x="160" y="715" as="sourcePoint" />
            <mxPoint x="229" y="695" as="targetPoint" />
          </mxGeometry>
        </mxCell>
        <mxCell id="eSohDNSTdxoi8HiKPgiF-156" value="" style="endArrow=none;html=1;rounded=0;exitX=1;exitY=0.5;exitDx=0;exitDy=0;entryX=0;entryY=0.5;entryDx=0;entryDy=0;endFill=0;strokeColor=#808080;" edge="1" parent="1" source="eSohDNSTdxoi8HiKPgiF-55" target="eSohDNSTdxoi8HiKPgiF-124">
          <mxGeometry width="50" height="50" relative="1" as="geometry">
            <mxPoint x="455" y="534.72" as="sourcePoint" />
            <mxPoint x="520" y="534.72" as="targetPoint" />
          </mxGeometry>
        </mxCell>
        <mxCell id="eSohDNSTdxoi8HiKPgiF-157" value="" style="endArrow=none;html=1;rounded=0;exitX=1;exitY=0.5;exitDx=0;exitDy=0;entryX=0;entryY=0.5;entryDx=0;entryDy=0;endFill=0;strokeColor=#808080;" edge="1" parent="1" source="eSohDNSTdxoi8HiKPgiF-56" target="eSohDNSTdxoi8HiKPgiF-124">
          <mxGeometry width="50" height="50" relative="1" as="geometry">
            <mxPoint x="449" y="545" as="sourcePoint" />
            <mxPoint x="530" y="595" as="targetPoint" />
          </mxGeometry>
        </mxCell>
        <mxCell id="eSohDNSTdxoi8HiKPgiF-158" value="" style="endArrow=none;html=1;rounded=0;exitX=1;exitY=0.5;exitDx=0;exitDy=0;entryX=0;entryY=0.5;entryDx=0;entryDy=0;endFill=0;strokeColor=#808080;" edge="1" parent="1" source="eSohDNSTdxoi8HiKPgiF-58" target="eSohDNSTdxoi8HiKPgiF-124">
          <mxGeometry width="50" height="50" relative="1" as="geometry">
            <mxPoint x="449" y="595" as="sourcePoint" />
            <mxPoint x="530" y="595" as="targetPoint" />
          </mxGeometry>
        </mxCell>
        <mxCell id="eSohDNSTdxoi8HiKPgiF-159" value="" style="endArrow=none;html=1;rounded=0;exitX=1;exitY=0.5;exitDx=0;exitDy=0;entryX=0;entryY=0.5;entryDx=0;entryDy=0;endFill=0;strokeColor=#808080;" edge="1" parent="1" source="eSohDNSTdxoi8HiKPgiF-57" target="eSohDNSTdxoi8HiKPgiF-124">
          <mxGeometry width="50" height="50" relative="1" as="geometry">
            <mxPoint x="449" y="645" as="sourcePoint" />
            <mxPoint x="530" y="595" as="targetPoint" />
          </mxGeometry>
        </mxCell>
        <mxCell id="eSohDNSTdxoi8HiKPgiF-160" value="" style="endArrow=none;html=1;rounded=0;exitX=1;exitY=0.5;exitDx=0;exitDy=0;entryX=0;entryY=0.5;entryDx=0;entryDy=0;endFill=0;strokeColor=#808080;" edge="1" parent="1" source="eSohDNSTdxoi8HiKPgiF-59" target="eSohDNSTdxoi8HiKPgiF-124">
          <mxGeometry width="50" height="50" relative="1" as="geometry">
            <mxPoint x="449" y="695" as="sourcePoint" />
            <mxPoint x="530" y="595" as="targetPoint" />
          </mxGeometry>
        </mxCell>
        <mxCell id="eSohDNSTdxoi8HiKPgiF-161" value="" style="endArrow=none;html=1;rounded=0;exitX=1;exitY=0.5;exitDx=0;exitDy=0;entryX=0;entryY=0.5;entryDx=0;entryDy=0;endFill=0;strokeColor=#808080;" edge="1" parent="1" source="eSohDNSTdxoi8HiKPgiF-55" target="eSohDNSTdxoi8HiKPgiF-125">
          <mxGeometry width="50" height="50" relative="1" as="geometry">
            <mxPoint x="449" y="745" as="sourcePoint" />
            <mxPoint x="530" y="595" as="targetPoint" />
          </mxGeometry>
        </mxCell>
        <mxCell id="eSohDNSTdxoi8HiKPgiF-162" value="" style="endArrow=none;html=1;rounded=0;exitX=1;exitY=0.5;exitDx=0;exitDy=0;entryX=0;entryY=0.5;entryDx=0;entryDy=0;endFill=0;strokeColor=#808080;" edge="1" parent="1" source="eSohDNSTdxoi8HiKPgiF-55" target="eSohDNSTdxoi8HiKPgiF-126">
          <mxGeometry width="50" height="50" relative="1" as="geometry">
            <mxPoint x="449" y="745" as="sourcePoint" />
            <mxPoint x="530" y="595" as="targetPoint" />
          </mxGeometry>
        </mxCell>
        <mxCell id="eSohDNSTdxoi8HiKPgiF-164" value="" style="endArrow=none;html=1;rounded=0;exitX=1;exitY=0.5;exitDx=0;exitDy=0;entryX=0;entryY=0.5;entryDx=0;entryDy=0;endFill=0;strokeColor=#808080;" edge="1" parent="1" source="eSohDNSTdxoi8HiKPgiF-56" target="eSohDNSTdxoi8HiKPgiF-126">
          <mxGeometry width="50" height="50" relative="1" as="geometry">
            <mxPoint x="459" y="555" as="sourcePoint" />
            <mxPoint x="540" y="705" as="targetPoint" />
          </mxGeometry>
        </mxCell>
        <mxCell id="eSohDNSTdxoi8HiKPgiF-165" value="" style="endArrow=none;html=1;rounded=0;exitX=1;exitY=0.5;exitDx=0;exitDy=0;entryX=0;entryY=0.5;entryDx=0;entryDy=0;endFill=0;strokeColor=#808080;" edge="1" parent="1" source="eSohDNSTdxoi8HiKPgiF-58" target="eSohDNSTdxoi8HiKPgiF-126">
          <mxGeometry width="50" height="50" relative="1" as="geometry">
            <mxPoint x="449" y="595" as="sourcePoint" />
            <mxPoint x="530" y="645" as="targetPoint" />
          </mxGeometry>
        </mxCell>
        <mxCell id="eSohDNSTdxoi8HiKPgiF-166" value="" style="endArrow=none;html=1;rounded=0;exitX=1;exitY=0.5;exitDx=0;exitDy=0;entryX=0;entryY=0.5;entryDx=0;entryDy=0;endFill=0;strokeColor=#808080;" edge="1" parent="1" source="eSohDNSTdxoi8HiKPgiF-58" target="eSohDNSTdxoi8HiKPgiF-125">
          <mxGeometry width="50" height="50" relative="1" as="geometry">
            <mxPoint x="449" y="645" as="sourcePoint" />
            <mxPoint x="530" y="645" as="targetPoint" />
          </mxGeometry>
        </mxCell>
        <mxCell id="eSohDNSTdxoi8HiKPgiF-167" value="" style="endArrow=none;html=1;rounded=0;exitX=1;exitY=0.5;exitDx=0;exitDy=0;entryX=0;entryY=0.5;entryDx=0;entryDy=0;endFill=0;strokeColor=#808080;" edge="1" parent="1" source="eSohDNSTdxoi8HiKPgiF-57" target="eSohDNSTdxoi8HiKPgiF-126">
          <mxGeometry width="50" height="50" relative="1" as="geometry">
            <mxPoint x="449" y="645" as="sourcePoint" />
            <mxPoint x="530" y="695" as="targetPoint" />
          </mxGeometry>
        </mxCell>
        <mxCell id="eSohDNSTdxoi8HiKPgiF-168" value="" style="endArrow=none;html=1;rounded=0;exitX=1;exitY=0.5;exitDx=0;exitDy=0;entryX=0;entryY=0.5;entryDx=0;entryDy=0;endFill=0;strokeColor=#808080;" edge="1" parent="1" source="eSohDNSTdxoi8HiKPgiF-57" target="eSohDNSTdxoi8HiKPgiF-125">
          <mxGeometry width="50" height="50" relative="1" as="geometry">
            <mxPoint x="449" y="695" as="sourcePoint" />
            <mxPoint x="530" y="645" as="targetPoint" />
          </mxGeometry>
        </mxCell>
        <mxCell id="eSohDNSTdxoi8HiKPgiF-169" value="" style="endArrow=none;html=1;rounded=0;exitX=1;exitY=0.5;exitDx=0;exitDy=0;entryX=0;entryY=0.5;entryDx=0;entryDy=0;endFill=0;strokeColor=#808080;" edge="1" parent="1" source="eSohDNSTdxoi8HiKPgiF-59" target="eSohDNSTdxoi8HiKPgiF-126">
          <mxGeometry width="50" height="50" relative="1" as="geometry">
            <mxPoint x="449" y="695" as="sourcePoint" />
            <mxPoint x="530" y="695" as="targetPoint" />
          </mxGeometry>
        </mxCell>
        <mxCell id="eSohDNSTdxoi8HiKPgiF-170" value="" style="endArrow=none;html=1;rounded=0;exitX=1;exitY=0.5;exitDx=0;exitDy=0;entryX=0;entryY=0.5;entryDx=0;entryDy=0;endFill=0;strokeColor=#808080;" edge="1" parent="1" source="eSohDNSTdxoi8HiKPgiF-59" target="eSohDNSTdxoi8HiKPgiF-125">
          <mxGeometry width="50" height="50" relative="1" as="geometry">
            <mxPoint x="449" y="745" as="sourcePoint" />
            <mxPoint x="530" y="645" as="targetPoint" />
          </mxGeometry>
        </mxCell>
        <mxCell id="eSohDNSTdxoi8HiKPgiF-171" value="" style="endArrow=none;html=1;rounded=0;exitX=1;exitY=0.5;exitDx=0;exitDy=0;entryX=0;entryY=0.5;entryDx=0;entryDy=0;endFill=0;strokeColor=#808080;" edge="1" parent="1" source="eSohDNSTdxoi8HiKPgiF-56" target="eSohDNSTdxoi8HiKPgiF-125">
          <mxGeometry width="50" height="50" relative="1" as="geometry">
            <mxPoint x="459" y="755" as="sourcePoint" />
            <mxPoint x="540" y="655" as="targetPoint" />
          </mxGeometry>
        </mxCell>
        <mxCell id="eSohDNSTdxoi8HiKPgiF-174" value="" style="endArrow=classic;html=1;rounded=0;exitX=1;exitY=0.5;exitDx=0;exitDy=0;endFill=1;strokeColor=#808080;" edge="1" parent="1" source="eSohDNSTdxoi8HiKPgiF-124">
          <mxGeometry width="50" height="50" relative="1" as="geometry">
            <mxPoint x="577" y="580" as="sourcePoint" />
            <mxPoint x="600" y="585" as="targetPoint" />
          </mxGeometry>
        </mxCell>
        <mxCell id="eSohDNSTdxoi8HiKPgiF-175" value="" style="endArrow=classic;html=1;rounded=0;exitX=1;exitY=0.5;exitDx=0;exitDy=0;endFill=1;strokeColor=#808080;" edge="1" parent="1" source="eSohDNSTdxoi8HiKPgiF-126">
          <mxGeometry width="50" height="50" relative="1" as="geometry">
            <mxPoint x="560" y="595" as="sourcePoint" />
            <mxPoint x="600" y="635" as="targetPoint" />
          </mxGeometry>
        </mxCell>
        <mxCell id="eSohDNSTdxoi8HiKPgiF-176" value="" style="endArrow=classic;html=1;rounded=0;exitX=1;exitY=0.5;exitDx=0;exitDy=0;endFill=1;strokeColor=#808080;" edge="1" parent="1" source="eSohDNSTdxoi8HiKPgiF-125">
          <mxGeometry width="50" height="50" relative="1" as="geometry">
            <mxPoint x="570" y="605" as="sourcePoint" />
            <mxPoint x="600" y="685" as="targetPoint" />
          </mxGeometry>
        </mxCell>
        <mxCell id="eSohDNSTdxoi8HiKPgiF-178" value="" style="endArrow=classic;html=1;rounded=0;endFill=1;strokeColor=#808080;entryX=0;entryY=0.5;entryDx=0;entryDy=0;" edge="1" parent="1" target="eSohDNSTdxoi8HiKPgiF-119">
          <mxGeometry width="50" height="50" relative="1" as="geometry">
            <mxPoint x="60" y="555" as="sourcePoint" />
            <mxPoint x="100" y="550" as="targetPoint" />
          </mxGeometry>
        </mxCell>
        <mxCell id="eSohDNSTdxoi8HiKPgiF-179" value="" style="endArrow=classic;html=1;rounded=0;endFill=1;strokeColor=#808080;entryX=0;entryY=0.5;entryDx=0;entryDy=0;" edge="1" parent="1">
          <mxGeometry width="50" height="50" relative="1" as="geometry">
            <mxPoint x="60" y="604.74" as="sourcePoint" />
            <mxPoint x="120" y="604.74" as="targetPoint" />
          </mxGeometry>
        </mxCell>
        <mxCell id="eSohDNSTdxoi8HiKPgiF-180" value="" style="endArrow=classic;html=1;rounded=0;endFill=1;strokeColor=#808080;entryX=0;entryY=0.5;entryDx=0;entryDy=0;" edge="1" parent="1">
          <mxGeometry width="50" height="50" relative="1" as="geometry">
            <mxPoint x="60" y="654.74" as="sourcePoint" />
            <mxPoint x="120" y="654.74" as="targetPoint" />
          </mxGeometry>
        </mxCell>
        <mxCell id="eSohDNSTdxoi8HiKPgiF-181" value="" style="endArrow=classic;html=1;rounded=0;endFill=1;strokeColor=#808080;entryX=0;entryY=0.5;entryDx=0;entryDy=0;" edge="1" parent="1">
          <mxGeometry width="50" height="50" relative="1" as="geometry">
            <mxPoint x="60" y="704.74" as="sourcePoint" />
            <mxPoint x="120" y="704.74" as="targetPoint" />
          </mxGeometry>
        </mxCell>
        <mxCell id="eSohDNSTdxoi8HiKPgiF-184" value="" style="shape=parallelogram;perimeter=parallelogramPerimeter;whiteSpace=wrap;html=1;fixedSize=1;flipV=1;flipH=0;size=19.999999999999773;rotation=-90;" vertex="1" parent="1">
          <mxGeometry x="790" y="310" width="110" height="110" as="geometry" />
        </mxCell>
        <mxCell id="eSohDNSTdxoi8HiKPgiF-188" value="" style="shape=parallelogram;perimeter=parallelogramPerimeter;whiteSpace=wrap;html=1;fixedSize=1;flipV=1;flipH=0;size=19.999999999999773;rotation=-90;" vertex="1" parent="1">
          <mxGeometry x="960" y="310" width="110" height="110" as="geometry" />
        </mxCell>
      </root>
    </mxGraphModel>
  </diagram>
</mxfile>
